<svg xmlns="http://www.w3.org/2000/svg" width="1600" height="900" viewBox="0 0 1600 900">
<rect width="1600" height="900" fill="#FAF7F2"/>
<circle cx="1230" cy="180" r="260" fill="#EAF3F2"/>
<path d="M160 690C420 520 710 610 1000 390c140-106 277-139 430-118" fill="none" stroke="#0D5B5A" stroke-width="28" stroke-linecap="round" opacity=".14"/>
<g transform="translate(160 180)"><rect width="330" height="420" rx="28" fill="#fff" stroke="#0D5B5A" stroke-width="12"/><path d="M230 0v92h100" fill="none" stroke="#D9B26F" stroke-width="14" stroke-linecap="round"/><path d="M60 120h180M60 178h148M60 236h210" stroke="#5FA3A3" stroke-width="16" stroke-linecap="round"/><circle cx="260" cy="330" r="64" fill="#fff" stroke="#0F1F2E" stroke-width="14"/><path d="M226 330l24 24 52-58" fill="none" stroke="#D9B26F" stroke-width="14" stroke-linecap="round" stroke-linejoin="round"/></g>
<g transform="translate(600 235)"><rect width="330" height="320" rx="28" fill="#fff" stroke="#5FA3A3" stroke-width="10"/><text x="44" y="86" fill="#0F1F2E" font-size="40" font-weight="700" font-family="Noto Sans TC">申請</text><text x="44" y="154" fill="#0D5B5A" font-size="28" font-family="Noto Sans TC">預算・名單・收款資料</text><path d="M50 230h230" stroke="#D9B26F" stroke-width="14" stroke-linecap="round"/></g>
<g transform="translate(1050 235)"><rect width="330" height="320" rx="28" fill="#0F1F2E"/><text x="44" y="86" fill="#fff" font-size="40" font-weight="700" font-family="Noto Sans TC">留痕</text><text x="44" y="154" fill="#E6F2F1" font-size="28" font-family="Noto Sans TC">核准・支出・通知</text><circle cx="260" cy="226" r="46" fill="none" stroke="#D9B26F" stroke-width="12"/><path d="M236 226l18 18 36-42" stroke="#D9B26F" stroke-width="12" fill="none" stroke-linecap="round"/></g>
<text x="160" y="760" fill="#0F1F2E" font-size="64" font-weight="800" font-family="Inter,Noto Sans TC">KirokuFlow｜紀錄流</text>
<text x="160" y="820" fill="#0D5B5A" font-size="32" font-family="Noto Sans TC">讓行政紀錄自然流動，讓經費流程清楚留痕。</text>
</svg>
